# Blender 4.4.0
# www.blender.org
mtllib sheildModel.mtl
o Plane
v 0.000000 2.976970 -0.747230
v 0.925865 2.580029 -0.821549
v 2.223804 2.251153 -1.109810
v 2.131680 0.810876 -1.085960
v 1.840889 -0.686124 -1.010677
v 1.096381 -2.171760 -0.835882
v 0.476589 -2.682107 -0.783785
v 0.000000 -2.886242 -0.747230
v 0.000000 2.755735 -0.679597
v 0.883305 2.434372 -0.750339
v 2.078322 2.129620 -1.004513
v 1.994114 0.832029 -0.982713
v 1.710887 -0.626054 -0.909388
v 0.993814 -2.068235 -0.759628
v 0.402239 -2.548286 -0.709902
v 0.000000 -2.670911 -0.679597
v 0.000000 2.755735 -0.602743
v 0.883305 2.434372 -0.673485
v 2.078322 2.129620 -0.927659
v 1.994114 0.832029 -0.905859
v 1.710887 -0.626054 -0.832534
v 0.993814 -2.068235 -0.682774
v 0.402239 -2.548286 -0.633048
v 0.000000 -2.670911 -0.602743
v 0.000000 2.976970 -0.602743
v 0.925865 2.580029 -0.677062
v 2.223804 2.251153 -0.965323
v 2.131680 0.810876 -0.941473
v 1.840889 -0.686124 -0.866190
v 1.096381 -2.171760 -0.691395
v 0.476589 -2.682107 -0.639298
v 0.000000 -2.886242 -0.602743
v -0.925864 2.580029 -0.821549
v -2.223804 2.251153 -1.109810
v -2.131680 0.810876 -1.085960
v -1.840888 -0.686124 -1.010677
v -1.096380 -2.171760 -0.835882
v -0.476589 -2.682107 -0.783785
v -0.883304 2.434372 -0.750339
v -2.078321 2.129620 -1.004513
v -1.994114 0.832029 -0.982713
v -1.710887 -0.626054 -0.909388
v -0.993813 -2.068235 -0.759628
v -0.402239 -2.548286 -0.709902
v -0.883304 2.434372 -0.673485
v -2.078321 2.129620 -0.927659
v -1.994114 0.832029 -0.905859
v -1.710887 -0.626054 -0.832534
v -0.993813 -2.068235 -0.682774
v -0.402239 -2.548286 -0.633048
v -0.925864 2.580029 -0.677062
v -2.223804 2.251153 -0.965323
v -2.131680 0.810876 -0.941473
v -1.840888 -0.686124 -0.866190
v -1.096380 -2.171760 -0.691395
v -0.476589 -2.682107 -0.639298
vn 0.2087 0.0029 0.9780
vn 0.3940 0.9191 -0.0000
vn -0.3419 -0.9397 -0.0000
vn 0.3937 -0.9192 -0.0000
vn -0.2916 0.9565 -0.0000
vn 0.6357 -0.7720 -0.0000
vn -0.6301 0.7765 -0.0000
vn 0.8940 -0.4480 -0.0000
vn 0.0800 -0.0000 0.9968
vn 0.1996 -0.0343 0.9793
vn 0.2506 -0.0000 0.9681
vn 0.2421 -0.0196 0.9701
vn 0.0838 -0.0000 0.9965
vn 0.0764 -0.0041 0.9971
vn -0.2471 -0.9690 -0.0000
vn 0.2456 0.9694 -0.0000
vn -0.9979 0.0648 -0.0000
vn 0.9980 -0.0638 -0.0000
vn -0.9817 0.1907 -0.0000
vn 0.9817 -0.1907 -0.0000
vn -0.8954 0.4452 -0.0000
vn -0.1331 -0.0000 0.9911
vn -0.3940 0.9191 -0.0000
vn 0.3419 -0.9397 -0.0000
vn -0.3937 -0.9192 -0.0000
vn 0.2916 0.9565 -0.0000
vn -0.6357 -0.7720 -0.0000
vn 0.6301 0.7765 -0.0000
vn -0.8940 -0.4480 -0.0000
vn -0.0802 0.0010 0.9968
vn -0.1996 -0.0343 0.9793
vn -0.2506 -0.0000 0.9681
vn -0.2421 -0.0196 0.9701
vn -0.0838 -0.0000 0.9965
vn -0.0764 -0.0041 0.9971
vn 0.2471 -0.9690 -0.0000
vn -0.2456 0.9694 -0.0000
vn 0.9979 0.0648 -0.0000
vn -0.9980 -0.0638 -0.0000
vn 0.9817 0.1907 -0.0000
vn -0.9817 -0.1907 -0.0000
vn 0.8954 0.4452 -0.0000
vn 0.0677 -0.0335 0.9971
vn 0.1331 -0.0000 0.9911
vn 0.0699 0.0172 0.9974
vn 0.0250 0.0909 0.9955
vn 0.2149 0.0074 0.9766
vn 0.0802 0.0010 0.9968
vn 0.2246 0.0329 0.9739
vn 0.1333 0.0497 0.9898
vn 0.0765 -0.0000 0.9971
vn -0.2087 0.0029 0.9780
vn -0.2149 0.0074 0.9766
vn -0.0250 0.0909 0.9955
vn -0.0677 -0.0335 0.9971
vn -0.0699 0.0172 0.9974
vn -0.0800 -0.0000 0.9968
vn -0.2246 0.0329 0.9739
vn -0.1333 0.0497 0.9898
vn -0.0765 -0.0000 0.9971
vt 0.906448 0.382717
vt 0.906448 0.519993
vt 0.778478 0.543872
vt 0.944724 0.244770
vt 0.952132 0.333279
vt 0.936879 0.333279
vt 0.502864 0.762813
vt 0.503509 0.683253
vt 0.510978 0.762813
vt 0.526223 0.614004
vt 0.513122 0.668001
vt 0.510977 0.613523
vt 0.535941 0.611224
vt 0.542354 0.655139
vt 0.534245 0.655415
vt 0.528367 0.668481
vt 0.516157 0.746291
vt 0.539511 0.725890
vt 0.531403 0.726166
vt 0.921701 0.461719
vt 0.924900 0.587820
vt 0.906448 0.461719
vt 0.230887 0.594392
vt 0.329611 0.582136
vt 0.229396 0.617699
vt 0.454056 0.542505
vt 0.326109 0.566503
vt 0.468564 0.403936
vt 0.468564 0.556297
vt 0.433917 0.249693
vt 0.453929 0.405230
vt 0.368092 0.092893
vt 0.448017 0.244248
vt 0.309004 0.038321
vt 0.379595 0.082679
vt 0.267454 0.022685
vt 0.317738 0.024725
vt 0.495396 0.683253
vt 0.476677 0.571672
vt 0.921701 0.461719
vt 0.906448 0.461719
vt 0.961268 0.834159
vt 0.975192 0.969157
vt 0.967093 0.969643
vt 0.948101 0.729409
vt 0.935365 0.871565
vt 0.932848 0.729409
vt 0.959977 0.683432
vt 0.969367 0.833673
vt 0.940153 0.587820
vt 0.967093 0.538084
vt 0.968076 0.682946
vt 0.720328 -0.000000
vt 0.683230 0.571672
vt 0.526111 0.203771
vt 0.952132 0.141046
vt 0.936879 0.141046
vt 0.503509 0.861877
vt 0.495396 0.861877
vt 0.516157 0.571672
vt 0.531403 0.572152
vt 0.539511 0.571672
vt 0.531403 0.571948
vt 0.969575 0.000978
vt 0.983135 0.059881
vt 0.967913 0.060859
vt 0.986066 0.067247
vt 0.992896 0.000481
vt 0.994165 0.067727
vt 0.975199 0.224111
vt 0.959977 0.225090
vt 0.134528 0.569658
vt 0.139994 0.554599
vt 0.016146 0.514496
vt 0.019411 0.375208
vt 0.033762 0.378355
vt 0.073426 0.226636
vt 0.060135 0.219439
vt 0.158691 0.079499
vt 0.148583 0.067903
vt 0.224250 0.032900
vt 0.217319 0.018303
vt 0.476677 0.991955
vt 0.468564 0.991955
vt 0.921701 0.000000
vt 0.906448 0.000000
vt 0.984797 0.525079
vt 0.998498 0.392298
vt 0.992896 0.525559
vt 0.962320 0.385453
vt 0.984797 0.536620
vt 0.969575 0.537598
vt 0.990399 0.391818
vt 1.000000 0.236298
vt 0.977542 0.384475
vt 0.991901 0.235817
vt 0.886580 0.227162
vt 0.761863 0.015674
vt 0.820900 0.070300
vt 0.959977 0.244770
vt 0.544050 0.610947
vt 0.531403 0.746771
vt 0.268905 0.000000
vt 0.468564 0.571672
vt 0.950618 0.871565
vt 0.975192 0.537598
vt 0.592374 0.531795
vt 0.468564 0.491577
vt 0.486306 0.355453
vt 0.611513 0.056713
vt 0.677115 0.010175
vt 0.984797 0.000000
vt 0.984797 0.000000
vt -0.000000 0.526328
s 0
usemtl Material.001
f 12/1/1 11/2/1 10/3/1
f 1/4/2 26/5/2 2/6/2
f 9/7/3 18/8/3 17/9/3
f 8/10/4 31/11/4 32/12/4
f 16/13/5 23/14/5 15/15/5
f 7/16/6 30/17/6 31/11/6
f 15/15/7 22/18/7 14/19/7
f 6/20/8 29/21/8 30/22/8
f 17/23/9 26/24/9 25/25/9
f 19/26/10 26/24/10 18/27/10
f 19/26/11 28/28/11 27/29/11
f 21/30/11 28/28/11 20/31/11
f 22/32/12 29/33/12 21/30/12
f 23/34/13 30/35/13 22/32/13
f 24/36/14 31/37/14 23/34/14
f 10/38/15 19/39/15 18/8/15
f 2/6/16 27/40/16 3/41/16
f 12/42/17 19/43/17 11/44/17
f 4/45/18 27/46/18 28/47/18
f 13/48/19 20/49/19 12/42/19
f 5/50/20 28/47/20 29/21/20
f 14/51/21 21/52/21 13/48/21
f 16/53/22 9/54/22 42/55/22
f 51/56/23 1/4/23 33/57/23
f 9/7/24 45/58/24 39/59/24
f 8/10/25 56/60/25 38/61/25
f 50/62/26 16/13/26 44/63/26
f 38/64/27 55/65/27 37/66/27
f 49/67/28 44/68/28 43/69/28
f 37/66/29 54/70/29 36/71/29
f 17/23/30 51/72/30 45/73/30
f 51/72/31 46/74/31 45/73/31
f 46/74/32 53/75/32 47/76/32
f 53/75/32 48/77/32 47/76/32
f 54/78/33 49/79/33 48/77/33
f 55/80/34 50/81/34 49/79/34
f 56/82/35 24/36/35 50/81/35
f 39/59/36 46/83/36 40/84/36
f 52/85/37 33/57/37 34/86/37
f 46/87/38 41/88/38 40/89/38
f 35/90/39 52/91/39 34/92/39
f 47/93/40 42/94/40 41/88/40
f 36/71/41 53/95/41 35/90/41
f 48/96/42 43/69/42 42/94/42
f 10/3/43 9/54/43 13/97/43
f 9/54/44 16/53/44 13/97/44
f 16/53/45 15/98/45 14/99/45
f 14/99/46 13/97/46 16/53/46
f 13/97/47 12/1/47 10/3/47
f 1/4/2 25/100/2 26/5/2
f 9/7/3 10/38/3 18/8/3
f 8/10/4 7/16/4 31/11/4
f 16/13/5 24/101/5 23/14/5
f 7/16/6 6/102/6 30/17/6
f 15/15/7 23/14/7 22/18/7
f 6/20/8 5/50/8 29/21/8
f 17/23/48 18/27/48 26/24/48
f 19/26/49 27/29/49 26/24/49
f 19/26/11 20/31/11 28/28/11
f 21/30/11 29/33/11 28/28/11
f 22/32/50 30/35/50 29/33/50
f 23/34/13 31/37/13 30/35/13
f 24/36/51 32/103/51 31/37/51
f 10/38/15 11/104/15 19/39/15
f 2/6/16 26/5/16 27/40/16
f 12/42/17 20/49/17 19/43/17
f 4/45/18 3/105/18 27/46/18
f 13/48/19 21/52/19 20/49/19
f 5/50/20 4/45/20 28/47/20
f 14/51/21 22/106/21 21/52/21
f 39/107/52 40/108/52 41/109/52
f 41/109/53 42/55/53 39/107/53
f 42/55/54 43/110/54 16/53/54
f 39/107/55 42/55/55 9/54/55
f 43/110/56 44/111/56 16/53/56
f 51/56/23 25/100/23 1/4/23
f 9/7/24 17/9/24 45/58/24
f 8/10/25 32/12/25 56/60/25
f 50/62/26 24/101/26 16/13/26
f 38/64/27 56/112/27 55/65/27
f 49/67/28 50/113/28 44/68/28
f 37/66/29 55/65/29 54/70/29
f 17/23/57 25/25/57 51/72/57
f 51/72/58 52/114/58 46/74/58
f 46/74/32 52/114/32 53/75/32
f 53/75/32 54/78/32 48/77/32
f 54/78/59 55/80/59 49/79/59
f 55/80/34 56/82/34 50/81/34
f 56/82/60 32/103/60 24/36/60
f 39/59/36 45/58/36 46/83/36
f 52/85/37 51/56/37 33/57/37
f 46/87/38 47/93/38 41/88/38
f 35/90/39 53/95/39 52/91/39
f 47/93/40 48/96/40 42/94/40
f 36/71/41 54/70/41 53/95/41
f 48/96/42 49/67/42 43/69/42
