# Blender 4.3.2
# www.blender.org
mtllib tankGun.mtl
o gun
v 1.076750 0.000050 0.000000
v 0.994750 0.372349 0.000000
v 0.994750 0.372349 1.837400
v 1.076750 0.000050 1.837400
v 0.610850 0.552050 0.000000
v 0.610850 0.552050 1.837400
v 0.412050 0.898950 0.000000
v 0.412050 0.898950 1.837400
v 0.000050 0.973050 0.000000
v 0.000050 0.973050 1.837400
v -0.412050 0.898950 0.000000
v -0.412050 0.898950 1.837400
v -0.610850 0.552050 0.000000
v -0.610850 0.552050 1.837400
v -0.994750 0.372349 0.000000
v -0.994750 0.372349 1.837400
v -1.076750 0.000050 0.000000
v -1.076750 0.000050 1.837400
v -0.994750 -0.372350 0.000000
v -0.994750 -0.372350 1.837400
v -0.610850 -0.552050 0.000000
v -0.610850 -0.552050 1.837400
v -0.412050 -0.898950 0.000000
v -0.412050 -0.898950 1.837400
v 0.000050 -0.973051 0.000000
v 0.000050 -0.973051 1.837400
v 0.412050 -0.898950 0.000000
v 0.412050 -0.898950 1.837400
v 0.610850 -0.552050 0.000000
v 0.610850 -0.552050 1.837400
v 0.994750 -0.372350 0.000000
v 0.994750 -0.372350 1.837400
v 0.835850 0.264349 2.016701
v 0.893950 0.000050 2.016701
v 0.477949 0.431850 2.016701
v 0.292549 0.755350 2.016701
v 0.000050 0.807849 2.016701
v -0.292550 0.755350 2.016701
v -0.477851 0.431850 2.016701
v -0.835750 0.264349 2.016701
v -0.893950 0.000050 2.016701
v -0.835750 -0.264351 2.016701
v -0.477851 -0.431850 2.016701
v -0.292550 -0.755251 2.016701
v 0.000050 -0.807850 2.016701
v 0.292550 -0.755251 2.016701
v 0.477950 -0.431850 2.016701
v 0.835850 -0.264351 2.016701
v 0.456950 0.412950 2.016701
v 0.638550 0.000050 2.016701
v 0.000050 0.609149 2.016701
v -0.456950 0.412950 2.016701
v -0.638450 0.000050 2.016701
v -0.456950 -0.412850 2.016701
v 0.000050 -0.609151 2.016701
v 0.456950 -0.412850 2.016701
v 0.456950 0.412951 21.195196
v 0.638451 0.000051 21.195196
v 0.000051 0.609150 21.195196
v -0.456949 0.412951 21.195196
v -0.638449 0.000051 21.195196
v -0.456949 -0.412848 21.195196
v 0.000051 -0.609149 21.195196
v 0.456950 -0.412848 21.195196
v 0.400050 0.364851 21.195196
v 0.560451 0.000051 21.195196
v 0.000051 0.536652 21.195196
v -0.400049 0.364851 21.195196
v -0.560449 0.000051 21.195196
v -0.400049 -0.364748 21.195196
v 0.000051 -0.536549 21.195196
v 0.400050 -0.364748 21.195196
v 0.000050 0.000051 10.123100
vn 0.9808 0.1951 -0.0000
vn 1.0000 -0.0000 -0.0000
vn 0.4599 0.8880 -0.0000
vn 0.8880 0.4599 -0.0000
vn -0.0000 1.0000 -0.0000
vn 0.1951 0.9808 -0.0000
vn -0.1951 0.9808 -0.0000
vn -0.8880 0.4599 -0.0000
vn -0.4599 0.8880 -0.0000
vn -1.0000 -0.0000 -0.0000
vn -0.9808 0.1951 -0.0000
vn -0.9808 -0.1951 -0.0000
vn -0.4599 -0.8880 -0.0000
vn -0.8880 -0.4599 -0.0000
vn -0.0000 -1.0000 -0.0000
vn -0.1951 -0.9808 -0.0000
vn 0.1951 -0.9808 -0.0000
vn 0.8880 -0.4599 -0.0000
vn 0.4599 -0.8880 -0.0000
vn 0.9808 -0.1951 -0.0000
vn -0.0000 -0.0000 -1.0000
vn 0.6935 0.1379 0.7071
vn 0.7003 -0.0000 0.7138
vn 0.4879 0.4879 0.7238
vn 0.3252 0.6279 0.7071
vn 0.6279 0.3252 0.7071
vn -0.0000 0.7002 0.7139
vn 0.1379 0.6935 0.7071
vn -0.1379 0.6935 0.7071
vn -0.4879 0.4878 0.7239
vn -0.6279 0.3253 0.7071
vn -0.6279 0.3252 0.7071
vn -0.3252 0.6279 0.7071
vn -0.7003 -0.0000 0.7139
vn -0.6935 0.1379 0.7071
vn -0.6935 -0.1379 0.7071
vn -0.4879 -0.4879 0.7238
vn -0.3252 -0.6279 0.7071
vn -0.6279 -0.3252 0.7071
vn -0.0000 -0.7002 0.7139
vn -0.1379 -0.6935 0.7071
vn 0.1379 -0.6935 0.7071
vn 0.4879 -0.4879 0.7238
vn 0.6279 -0.3252 0.7071
vn 0.3252 -0.6279 0.7071
vn 0.6935 -0.1379 0.7071
vn -0.0000 -0.0000 1.0000
vn 0.9293 0.3693 -0.0000
vn 0.4292 0.9032 -0.0000
vn -0.4292 0.9032 -0.0000
vn -0.9293 0.3693 -0.0000
vn -0.9293 -0.3693 -0.0000
vn -0.4292 -0.9032 -0.0000
vn 0.4292 -0.9032 -0.0000
vn 0.9293 -0.3693 -0.0000
vn -0.9283 -0.3689 0.0470
vn -0.4287 -0.9021 0.0484
vn 0.4287 -0.9021 0.0484
vn 0.9283 -0.3689 0.0470
vn 0.9283 0.3689 0.0470
vn 0.4287 0.9021 0.0484
vn -0.4287 0.9021 0.0484
vn -0.9283 0.3689 0.0470
vn 0.7002 -0.0000 0.7139
vn -0.7002 -0.0000 0.7139
vn -0.4879 -0.4879 0.7239
vn -0.0000 -0.7003 0.7139
vn 0.4879 -0.4879 0.7239
vt 0.871871 0.338332
vt 0.869866 0.348679
vt 0.869866 0.338328
vt 0.130377 0.871498
vt 0.127516 0.881728
vt 0.128053 0.871398
vt 0.196255 0.878496
vt 0.194489 0.888839
vt 0.194489 0.878488
vt 0.784774 0.211173
vt 0.782417 0.221514
vt 0.782417 0.211170
vt 0.786958 0.211208
vt 0.784774 0.221517
vt 0.439951 0.888648
vt 0.442050 0.878293
vt 0.442050 0.888644
vt 0.339127 0.878460
vt 0.337222 0.888748
vt 0.337222 0.878404
vt 0.866862 0.561894
vt 0.869004 0.551543
vt 0.869004 0.561894
vt 0.864856 0.561890
vt 0.866862 0.551543
vt 0.147083 0.882800
vt 0.149920 0.872564
vt 0.149442 0.882892
vt 0.887674 0.461928
vt 0.889440 0.451584
vt 0.889440 0.461935
vt 0.866740 0.641193
vt 0.869084 0.630867
vt 0.869084 0.641206
vt 0.864632 0.641142
vt 0.866740 0.630855
vt 0.375517 0.878388
vt 0.373418 0.888743
vt 0.373418 0.878392
vt 0.807891 0.148121
vt 0.809679 0.137859
vt 0.809679 0.148198
vt 0.867723 0.348680
vt 0.867723 0.338329
vt 0.374117 0.828329
vt 0.374665 0.824185
vt 0.378731 0.823222
vt 0.346798 0.825382
vt 0.346604 0.823377
vt 0.347850 0.825126
vt 0.129840 0.881828
vt 0.128210 0.882805
vt 0.346798 0.829508
vt 0.347151 0.827409
vt 0.347850 0.829551
vt 0.782907 0.222559
vt 0.786131 0.222586
vt 0.786958 0.221551
vt 0.342536 0.832516
vt 0.344588 0.831953
vt 0.344737 0.832995
vt 0.340484 0.832369
vt 0.340335 0.833442
vt 0.868536 0.550527
vt 0.338274 0.830372
vt 0.338469 0.832378
vt 0.337222 0.830629
vt 0.147561 0.872472
vt 0.149282 0.871484
vt 0.338275 0.826247
vt 0.337922 0.828345
vt 0.337222 0.826204
vt 0.868668 0.629811
vt 0.865507 0.629766
vt 0.864632 0.630803
vt 0.342536 0.823239
vt 0.340485 0.823802
vt 0.340335 0.822760
vt 0.344589 0.823385
vt 0.344737 0.822313
vt 0.868191 0.349695
vt 0.344948 0.825209
vt 0.345913 0.824141
vt 0.346147 0.827511
vt 0.345988 0.827527
vt 0.345082 0.830178
vt 0.345913 0.830929
vt 0.342536 0.831506
vt 0.342536 0.831347
vt 0.340125 0.830546
vt 0.339160 0.831614
vt 0.338926 0.828243
vt 0.339085 0.828228
vt 0.339990 0.825576
vt 0.339160 0.824826
vt 0.342537 0.824248
vt 0.342537 0.824408
vt 0.265562 0.471949
vt 0.263414 0.579984
vt 0.263415 0.471942
vt 0.069847 0.457714
vt 0.067100 0.565699
vt 0.067100 0.457735
vt 0.072135 0.457776
vt 0.069847 0.565677
vt 0.534805 0.579609
vt 0.537257 0.471562
vt 0.537257 0.579605
vt 0.532657 0.579601
vt 0.534805 0.471566
vt 0.571809 0.579478
vt 0.574591 0.471546
vt 0.574591 0.579462
vt 0.569653 0.579391
vt 0.571809 0.471562
vt 0.260962 0.579988
vt 0.260962 0.471945
vt 0.853972 0.427438
vt 0.851646 0.426855
vt 0.851646 0.426415
vt 0.855077 0.430012
vt 0.853701 0.427758
vt 0.853701 0.432266
vt 0.854669 0.430012
vt 0.853972 0.432586
vt 0.851646 0.433169
vt 0.849320 0.432586
vt 0.851646 0.433609
vt 0.848214 0.430012
vt 0.849591 0.432266
vt 0.849591 0.427758
vt 0.848623 0.430012
vt 0.849320 0.427438
vt 0.676506 0.008409
vt 0.678403 0.008467
vt 0.674340 0.070764
vt 0.265284 0.658997
vt 0.262851 0.659118
vt 0.260962 0.596697
vt 0.260962 0.659124
vt 0.678403 0.149882
vt 0.676237 0.149826
vt 0.678403 0.087470
vt 0.674340 0.149768
vt 0.173541 0.557677
vt 0.175944 0.557557
vt 0.177947 0.619972
vt 0.177947 0.557527
vt 0.674340 0.008353
vt 0.871871 0.348683
vt 0.196255 0.888847
vt 0.439951 0.878297
vt 0.339127 0.888803
vt 0.864856 0.551539
vt 0.887674 0.451577
vt 0.375517 0.888739
vt 0.807891 0.137782
vt 0.382798 0.823360
vt 0.384045 0.825109
vt 0.383346 0.827393
vt 0.384045 0.829534
vt 0.382799 0.831536
vt 0.380932 0.832978
vt 0.378732 0.832499
vt 0.376530 0.833425
vt 0.374664 0.832361
vt 0.373418 0.830612
vt 0.373418 0.826187
vt 0.376531 0.822743
vt 0.380933 0.822297
vt 0.130377 0.882898
vt 0.784580 0.222561
vt 0.867015 0.550528
vt 0.147083 0.871398
vt 0.867003 0.629802
vt 0.869713 0.349695
vt 0.265562 0.579991
vt 0.072135 0.565740
vt 0.532657 0.471559
vt 0.569653 0.471475
s 1
usemtl wire_022022022
f 2/1/1 4/2/2 1/3/2
f 5/4/3 3/5/3 2/6/3
f 7/7/4 6/8/4 5/9/4
f 9/10/5 8/11/6 7/12/6
f 11/13/7 10/14/5 9/10/5
f 13/15/8 12/16/8 11/17/8
f 15/18/9 14/19/9 13/20/9
f 17/21/10 16/22/11 15/23/11
f 19/24/12 18/25/10 17/21/10
f 21/26/13 20/27/13 19/28/13
f 23/29/14 22/30/14 21/31/14
f 25/32/15 24/33/16 23/34/16
f 27/35/17 26/36/15 25/32/15
f 29/37/18 28/38/18 27/39/18
f 31/40/19 30/41/19 29/42/19
f 1/3/2 32/43/20 31/44/20
f 13/45/21 9/46/21 5/47/21
f 33/48/22 4/49/23 3/50/22
f 6/51/24 33/52/25 3/5/25
f 36/53/26 6/54/24 8/55/26
f 10/14/27 36/56/28 8/11/28
f 38/57/29 10/14/27 12/58/29
f 14/59/30 38/60/31 12/61/32
f 40/62/33 14/59/30 16/63/33
f 18/25/34 40/64/35 16/22/35
f 42/65/36 18/66/34 20/67/36
f 22/68/37 42/69/38 20/27/38
f 44/70/39 22/71/37 24/72/39
f 26/36/40 44/73/41 24/33/41
f 46/74/42 26/36/40 28/75/42
f 30/76/43 46/77/44 28/78/44
f 48/79/45 30/76/43 32/80/45
f 4/2/23 48/81/46 32/43/46
f 33/48/47 50/82/47 34/83/47
f 33/48/47 35/84/47 49/85/47
f 35/84/47 36/53/47 49/85/47
f 36/53/47 51/86/47 49/85/47
f 38/60/47 51/86/47 37/87/47
f 38/60/47 39/88/47 52/89/47
f 39/88/47 40/62/47 52/89/47
f 40/62/47 53/90/47 52/89/47
f 42/65/47 53/90/47 41/91/47
f 42/65/47 43/92/47 54/93/47
f 43/92/47 44/70/47 54/93/47
f 44/70/47 55/94/47 54/93/47
f 46/77/47 55/94/47 45/95/47
f 46/77/47 47/96/47 56/97/47
f 47/96/47 48/79/47 56/97/47
f 48/79/47 50/82/47 56/97/47
f 49/98/48 58/99/48 50/100/48
f 51/101/49 57/102/49 49/103/49
f 52/104/50 59/105/50 51/101/50
f 53/106/51 60/107/51 52/108/51
f 54/109/52 61/110/52 53/106/52
f 55/111/53 62/112/53 54/113/53
f 56/114/54 63/115/54 55/111/54
f 50/100/55 64/116/55 56/117/55
f 57/118/47 66/119/47 58/120/47
f 59/121/47 65/122/47 57/118/47
f 59/121/47 68/123/47 67/124/47
f 60/125/47 69/126/47 68/123/47
f 62/127/47 69/126/47 61/128/47
f 63/129/47 70/130/47 62/127/47
f 63/129/47 72/131/47 71/132/47
f 64/133/47 66/119/47 72/131/47
f 66/134/56 65/135/56 73/136/56
f 65/137/57 67/138/57 73/139/57
f 67/138/58 68/140/58 73/139/58
f 68/141/59 69/142/59 73/143/59
f 69/142/60 70/144/60 73/143/60
f 70/145/61 71/146/61 73/147/61
f 71/146/62 72/148/62 73/147/62
f 72/149/63 66/134/63 73/136/63
f 2/1/1 3/150/1 4/2/2
f 5/4/3 6/51/3 3/5/3
f 7/7/4 8/151/4 6/8/4
f 9/10/5 10/14/5 8/11/6
f 11/13/7 12/58/7 10/14/5
f 13/15/8 14/152/8 12/16/8
f 15/18/9 16/153/9 14/19/9
f 17/21/10 18/25/10 16/22/11
f 19/24/12 20/154/12 18/25/10
f 21/26/13 22/68/13 20/27/13
f 23/29/14 24/155/14 22/30/14
f 25/32/15 26/36/15 24/33/16
f 27/35/17 28/75/17 26/36/15
f 29/37/18 30/156/18 28/38/18
f 31/40/19 32/157/19 30/41/19
f 1/3/2 4/2/2 32/43/20
f 1/158/21 31/159/21 29/160/21
f 29/160/21 27/161/21 25/162/21
f 25/162/21 23/163/21 21/164/21
f 21/164/21 19/165/21 17/166/21
f 17/166/21 15/167/21 13/45/21
f 13/45/21 11/168/21 9/46/21
f 9/46/21 7/169/21 5/47/21
f 5/47/21 2/170/21 1/158/21
f 1/158/21 29/160/21 5/47/21
f 29/160/21 25/162/21 21/164/21
f 5/47/21 29/160/21 21/164/21
f 21/164/21 17/166/21 13/45/21
f 5/47/21 21/164/21 13/45/21
f 33/48/22 34/83/64 4/49/23
f 6/51/24 35/171/24 33/52/25
f 36/53/26 35/84/24 6/54/24
f 10/14/27 37/172/27 36/56/28
f 38/57/29 37/172/27 10/14/27
f 14/59/30 39/88/30 38/60/31
f 40/62/33 39/88/30 14/59/30
f 18/25/34 41/173/65 40/64/35
f 42/65/36 41/91/65 18/66/34
f 22/68/37 43/174/66 42/69/38
f 44/70/39 43/92/66 22/71/37
f 26/36/40 45/175/67 44/73/41
f 46/74/42 45/175/67 26/36/40
f 30/76/43 47/96/68 46/77/44
f 48/79/45 47/96/68 30/76/43
f 4/2/23 34/176/64 48/81/46
f 33/48/47 49/85/47 50/82/47
f 36/53/47 37/87/47 51/86/47
f 38/60/47 52/89/47 51/86/47
f 40/62/47 41/91/47 53/90/47
f 42/65/47 54/93/47 53/90/47
f 44/70/47 45/95/47 55/94/47
f 46/77/47 56/97/47 55/94/47
f 48/79/47 34/83/47 50/82/47
f 49/98/48 57/177/48 58/99/48
f 51/101/49 59/105/49 57/102/49
f 52/104/50 60/178/50 59/105/50
f 53/106/51 61/110/51 60/107/51
f 54/109/52 62/179/52 61/110/52
f 55/111/53 63/115/53 62/112/53
f 56/114/54 64/180/54 63/115/54
f 50/100/55 58/99/55 64/116/55
f 57/118/47 65/122/47 66/119/47
f 59/121/47 67/124/47 65/122/47
f 59/121/47 60/125/47 68/123/47
f 60/125/47 61/128/47 69/126/47
f 62/127/47 70/130/47 69/126/47
f 63/129/47 71/132/47 70/130/47
f 63/129/47 64/133/47 72/131/47
f 64/133/47 58/120/47 66/119/47
