# Blender 4.3.2
# www.blender.org
mtllib tankRound.mtl
o Main_Gun_Focus_Grenade
v 0.000000 -0.088000 -0.338000
v -0.030098 -0.082693 -0.338000
v -0.056565 -0.067412 -0.338000
v -0.076210 -0.044000 -0.338000
v -0.086663 -0.015281 -0.338000
v -0.086663 0.015281 -0.338000
v -0.076210 0.044000 -0.338000
v -0.056565 0.067412 -0.338000
v -0.030098 0.082693 -0.338000
v 0.000000 0.088000 -0.338000
v 0.030098 0.082693 -0.338000
v 0.056565 0.067412 -0.338000
v 0.076210 0.044000 -0.338000
v 0.086663 0.015281 -0.338000
v 0.086663 -0.015281 -0.338000
v 0.076210 -0.044000 -0.338000
v 0.056565 -0.067412 -0.338000
v 0.030098 -0.082693 -0.338000
v 0.000000 0.000000 0.000000
v 0.000000 -0.088000 -0.153839
v 0.000000 -0.045701 -0.042166
v 0.000000 -0.082333 -0.115596
v 0.000000 -0.066850 -0.074721
v -0.015631 -0.042945 -0.042166
v -0.030098 -0.082693 -0.153839
v -0.022864 -0.062819 -0.074721
v -0.028159 -0.077368 -0.115596
v -0.029376 -0.035009 -0.042166
v -0.056565 -0.067412 -0.153839
v -0.042971 -0.051210 -0.074721
v -0.052923 -0.063071 -0.115596
v -0.039578 -0.022850 -0.042166
v -0.076210 -0.044000 -0.153839
v -0.057894 -0.033425 -0.074721
v -0.071302 -0.041167 -0.115596
v -0.045006 -0.007936 -0.042166
v -0.086663 -0.015281 -0.153839
v -0.065835 -0.011608 -0.074721
v -0.081082 -0.014297 -0.115596
v -0.045006 0.007936 -0.042166
v -0.086663 0.015281 -0.153839
v -0.065835 0.011608 -0.074721
v -0.081082 0.014297 -0.115596
v -0.039578 0.022850 -0.042166
v -0.076210 0.044000 -0.153839
v -0.057894 0.033425 -0.074721
v -0.071302 0.041166 -0.115596
v -0.029376 0.035009 -0.042166
v -0.056565 0.067412 -0.153839
v -0.042971 0.051210 -0.074721
v -0.052923 0.063071 -0.115596
v -0.015631 0.042945 -0.042166
v -0.030098 0.082693 -0.153839
v -0.022864 0.062819 -0.074721
v -0.028159 0.077368 -0.115596
v 0.000000 0.045701 -0.042166
v 0.000000 0.088000 -0.153839
v 0.000000 0.066850 -0.074721
v 0.000000 0.082333 -0.115596
v 0.015631 0.042945 -0.042166
v 0.030098 0.082693 -0.153839
v 0.022864 0.062819 -0.074721
v 0.028160 0.077368 -0.115596
v 0.029376 0.035009 -0.042166
v 0.056565 0.067412 -0.153839
v 0.042971 0.051210 -0.074721
v 0.052923 0.063071 -0.115596
v 0.039578 0.022850 -0.042166
v 0.076210 0.044000 -0.153839
v 0.057894 0.033425 -0.074721
v 0.071302 0.041166 -0.115596
v 0.045006 0.007936 -0.042166
v 0.086663 0.015281 -0.153839
v 0.065835 0.011608 -0.074721
v 0.081082 0.014297 -0.115596
v 0.045006 -0.007936 -0.042166
v 0.086663 -0.015281 -0.153839
v 0.065835 -0.011608 -0.074721
v 0.081082 -0.014297 -0.115596
v 0.039578 -0.022850 -0.042166
v 0.076210 -0.044000 -0.153839
v 0.057894 -0.033425 -0.074721
v 0.071303 -0.041166 -0.115596
v 0.029376 -0.035009 -0.042166
v 0.056565 -0.067412 -0.153839
v 0.042971 -0.051210 -0.074721
v 0.052923 -0.063071 -0.115596
v 0.015631 -0.042945 -0.042166
v 0.030098 -0.082693 -0.153839
v 0.022864 -0.062819 -0.074721
v 0.028160 -0.077368 -0.115596
v 0.000000 -0.088000 -0.338000
v -0.030098 -0.082693 -0.338000
v -0.056565 -0.067412 -0.338000
v -0.076210 -0.044000 -0.338000
v -0.086663 -0.015281 -0.338000
v -0.086663 0.015281 -0.338000
v -0.076210 0.044000 -0.338000
v -0.056565 0.067412 -0.338000
v -0.030098 0.082693 -0.338000
v 0.000000 0.088000 -0.338000
v 0.030098 0.082693 -0.338000
v 0.056565 0.067412 -0.338000
v 0.076210 0.044000 -0.338000
v 0.086663 0.015281 -0.338000
v 0.086663 -0.015281 -0.338000
v 0.076210 -0.044000 -0.338000
v 0.056565 -0.067412 -0.338000
v 0.030098 -0.082693 -0.338000
vn -0.0000 -0.0000 -1.0000
vn -0.0000 -0.0000 1.0000
vn -0.0000 -0.9973 0.0729
vn -0.0000 -0.7699 0.6382
vn -0.0000 -0.9685 0.2490
vn -0.0000 -0.8943 0.4474
vn -0.2633 -0.7235 0.6382
vn -0.3411 -0.9372 0.0729
vn -0.3059 -0.8404 0.4474
vn -0.3312 -0.9101 0.2490
vn -0.4949 -0.5898 0.6382
vn -0.6411 -0.7640 0.0729
vn -0.5749 -0.6851 0.4474
vn -0.6225 -0.7419 0.2490
vn -0.6667 -0.3849 0.6382
vn -0.8637 -0.4987 0.0729
vn -0.7745 -0.4472 0.4474
vn -0.8387 -0.4842 0.2490
vn -0.7582 -0.1337 0.6382
vn -0.9822 -0.1732 0.0729
vn -0.8808 -0.1553 0.4474
vn -0.9538 -0.1682 0.2490
vn -0.7582 0.1337 0.6382
vn -0.9822 0.1732 0.0729
vn -0.8808 0.1553 0.4474
vn -0.9538 0.1682 0.2490
vn -0.6667 0.3849 0.6382
vn -0.8637 0.4987 0.0729
vn -0.7745 0.4472 0.4474
vn -0.8387 0.4842 0.2490
vn -0.4949 0.5898 0.6382
vn -0.6411 0.7640 0.0729
vn -0.5749 0.6851 0.4474
vn -0.6225 0.7419 0.2490
vn -0.2633 0.7235 0.6382
vn -0.3411 0.9372 0.0729
vn -0.3059 0.8404 0.4474
vn -0.3312 0.9101 0.2490
vn -0.0000 0.7699 0.6382
vn -0.0000 0.9973 0.0729
vn -0.0000 0.8943 0.4474
vn -0.0000 0.9685 0.2490
vn 0.2633 0.7235 0.6382
vn 0.3411 0.9372 0.0729
vn 0.3059 0.8404 0.4474
vn 0.3312 0.9101 0.2490
vn 0.4949 0.5898 0.6382
vn 0.6411 0.7640 0.0729
vn 0.5749 0.6851 0.4474
vn 0.6225 0.7419 0.2490
vn 0.6667 0.3849 0.6382
vn 0.8637 0.4987 0.0729
vn 0.7745 0.4472 0.4474
vn 0.8387 0.4843 0.2490
vn 0.7582 0.1337 0.6382
vn 0.9822 0.1732 0.0729
vn 0.8808 0.1553 0.4474
vn 0.9538 0.1682 0.2490
vn 0.7582 -0.1337 0.6382
vn 0.9822 -0.1732 0.0729
vn 0.8808 -0.1553 0.4474
vn 0.9538 -0.1682 0.2490
vn 0.6667 -0.3849 0.6382
vn 0.8637 -0.4987 0.0729
vn 0.7745 -0.4472 0.4474
vn 0.8387 -0.4842 0.2490
vn 0.4949 -0.5898 0.6382
vn 0.6411 -0.7640 0.0729
vn 0.5749 -0.6851 0.4474
vn 0.6225 -0.7419 0.2490
vn 0.2633 -0.7235 0.6382
vn 0.3411 -0.9372 0.0729
vn 0.3059 -0.8404 0.4474
vn 0.3312 -0.9101 0.2490
vn -0.0000 -1.0000 -0.0000
vn -0.3420 -0.9397 -0.0000
vn -0.6428 -0.7660 -0.0000
vn -0.8660 -0.5000 -0.0000
vn -0.9848 -0.1736 -0.0000
vn -0.9848 0.1736 -0.0000
vn -0.8660 0.5000 -0.0000
vn -0.6428 0.7660 -0.0000
vn -0.3420 0.9397 -0.0000
vn -0.0000 1.0000 -0.0000
vn 0.3420 0.9397 -0.0000
vn 0.6428 0.7660 -0.0000
vn 0.8660 0.5000 -0.0000
vn 0.9848 0.1736 -0.0000
vn 0.9848 -0.1736 -0.0000
vn 0.8660 -0.5000 -0.0000
vn 0.6428 -0.7660 -0.0000
vn 0.3420 -0.9397 -0.0000
vt 0.901068 0.333245
vt 0.928373 0.613834
vt 0.873376 0.619624
vt 0.112213 0.095815
vt 0.084074 0.093634
vt 0.127186 -0.000000
vt 0.142158 0.095815
vt 0.170297 0.093634
vt 0.193237 0.089534
vt 0.679040 0.548873
vt 0.701980 0.556344
vt 0.635929 0.651173
vt 0.650901 0.544898
vt 0.620956 0.544898
vt 0.592817 0.548873
vt 0.569878 0.556344
vt 0.424669 0.564262
vt 0.447608 0.568362
vt 0.381557 0.657896
vt 0.396530 0.562080
vt 0.366585 0.562080
vt 0.338446 0.564262
vt 0.851046 0.103090
vt 0.829252 0.090141
vt 0.904327 -0.000000
vt 0.878502 0.111513
vt 0.763114 0.342257
vt 0.718943 0.007654
vt 0.763114 0.022040
vt 0.908308 0.114395
vt 0.936869 0.111389
vt 0.528464 0.734187
vt 0.729035 0.661185
vt 0.835757 0.846033
vt 0.508743 0.351577
vt 0.464572 0.004201
vt 0.508743 0.012095
vt 0.790807 0.311475
vt 0.815983 0.614074
vt 0.763114 0.597854
vt 0.156016 0.318414
vt 0.210200 0.653695
vt 0.156016 0.657896
vt 0.607098 0.320217
vt 0.552914 0.007654
vt 0.607098 0.000000
vt 0.000000 0.645800
vt 0.044171 0.314214
vt 0.044171 0.653695
vt 0.352727 0.339481
vt 0.298543 0.004201
vt 0.352727 0.000000
vt 0.098355 0.318414
vt 0.098355 0.657896
vt 0.718943 0.327872
vt 0.664759 0.000000
vt 0.464572 0.343682
vt 0.410388 0.000000
vt 0.843675 0.327695
vt 0.254372 0.306319
vt 0.254372 0.645800
vt 0.552914 0.327872
vt 0.508743 0.022039
vt 0.254372 0.351577
vt 0.254372 0.012095
vt 0.664759 0.320217
vt 0.410388 0.339481
vt 0.000000 0.306319
vt 0.049517 0.241745
vt 1.000000 0.246930
vt 0.949968 0.183218
vt 0.984886 0.170735
vt 0.960740 0.102855
vt 0.100212 0.245675
vt 0.105284 0.164198
vt 0.154160 0.245675
vt 0.149087 0.164198
vt 0.210200 0.314214
vt 0.204854 0.241745
vt 0.190249 0.161007
vt 0.246181 0.234358
vt 0.223804 0.155009
vt 0.713597 0.397962
vt 0.754924 0.411421
vt 0.698992 0.478854
vt 0.662903 0.390801
vt 0.657830 0.473040
vt 0.608955 0.390801
vt 0.614027 0.473040
vt 0.558260 0.397962
vt 0.572866 0.478854
vt 0.508743 0.342257
vt 0.516933 0.411421
vt 0.539310 0.489782
vt 0.459226 0.416151
vt 0.500552 0.423537
vt 0.444620 0.496889
vt 0.478176 0.502886
vt 0.408531 0.412221
vt 0.403459 0.493698
vt 0.354583 0.412221
vt 0.359656 0.493698
vt 0.303889 0.416151
vt 0.298543 0.343682
vt 0.318494 0.496889
vt 0.262562 0.423537
vt 0.763114 0.224024
vt 0.824427 0.171078
vt 0.802378 0.247353
vt 0.851841 0.262528
vt 0.864589 0.183400
vt 0.905539 0.267721
vt 0.908189 0.187616
vt 0.956065 0.327455
vt 0.956994 0.262303
vt 0.565528 0.944388
vt 0.528464 0.900216
vt 0.508743 0.846033
vt 0.508743 0.788371
vt 0.565528 0.690016
vt 0.615465 0.661185
vt 0.672250 0.651173
vt 0.778971 0.690016
vt 0.816035 0.734187
vt 0.835757 0.788371
vt 0.816035 0.900216
vt 0.672250 0.983231
vt 0.778971 0.944388
vt 0.729035 0.973218
vt 0.615465 0.973218
vt 0.008191 0.234358
vt 0.064123 0.161007
vt 0.732547 0.489782
vt 0.792547 0.152137
s 1
usemtl N/A_(NoMat)
f 89/1/72 92/2/75 109/3/92
f 28/4/11 24/5/7 19/6/2
f 32/7/15 28/4/11 19/6/2
f 36/8/19 32/7/15 19/6/2
f 40/9/23 36/8/19 19/6/2
f 44/10/27 40/11/23 19/12/2
f 48/13/31 44/10/27 19/12/2
f 52/14/35 48/13/31 19/12/2
f 56/15/39 52/14/35 19/12/2
f 60/16/43 56/15/39 19/12/2
f 64/17/47 60/18/43 19/19/2
f 68/20/51 64/17/47 19/19/2
f 72/21/55 68/20/51 19/19/2
f 76/22/59 72/21/55 19/19/2
f 80/23/63 76/24/59 19/25/2
f 84/26/67 80/23/63 19/25/2
f 41/27/24 98/28/81 97/29/80
f 88/30/71 84/26/67 19/25/2
f 21/31/4 88/30/71 19/25/2
f 4/32/1 8/33/1 12/34/1
f 61/35/44 103/36/86 102/37/85
f 81/38/64 108/39/91 107/40/90
f 33/41/16 96/42/79 95/43/78
f 53/44/36 101/45/84 100/46/83
f 92/47/75 25/48/8 93/49/76
f 73/50/56 106/51/89 105/52/88
f 93/49/76 29/53/12 94/54/77
f 45/55/28 99/56/82 98/28/81
f 65/57/48 104/58/87 103/36/86
f 85/59/68 109/3/92 108/39/91
f 96/42/79 41/60/24 97/61/80
f 57/62/40 102/63/85 101/45/84
f 106/51/89 81/64/64 107/65/90
f 29/53/12 95/43/78 94/54/77
f 49/66/32 100/46/83 99/56/82
f 69/67/52 105/52/88 104/58/87
f 20/68/3 27/69/10 25/48/8
f 27/70/10 23/71/6 26/72/9
f 26/72/9 21/31/4 24/73/7
f 25/48/8 31/74/14 29/53/12
f 27/69/10 30/75/13 31/74/14
f 30/75/13 24/5/7 28/4/11
f 33/41/16 31/74/14 35/76/18
f 31/74/14 34/77/17 35/76/18
f 30/75/13 32/7/15 34/77/17
f 37/78/20 35/76/18 39/79/22
f 39/79/22 34/77/17 38/80/21
f 38/80/21 32/7/15 36/8/19
f 37/78/20 43/81/26 41/60/24
f 39/79/22 42/82/25 43/81/26
f 38/80/21 40/9/23 42/82/25
f 41/27/24 47/83/30 45/55/28
f 43/84/26 46/85/29 47/83/30
f 46/85/29 40/11/23 44/10/27
f 49/66/32 47/83/30 51/86/34
f 47/83/30 50/87/33 51/86/34
f 46/85/29 48/13/31 50/87/33
f 49/66/32 55/88/38 53/44/36
f 55/88/38 50/87/33 54/89/37
f 50/87/33 52/14/35 54/89/37
f 57/62/40 55/88/38 59/90/42
f 55/88/38 58/91/41 59/90/42
f 54/89/37 56/15/39 58/91/41
f 61/92/44 59/90/42 63/93/46
f 59/90/42 62/94/45 63/93/46
f 58/91/41 60/16/43 62/94/45
f 61/35/44 67/95/50 65/57/48
f 63/96/46 66/97/49 67/95/50
f 62/98/45 64/17/47 66/97/49
f 65/57/48 71/99/54 69/67/52
f 67/95/50 70/100/53 71/99/54
f 70/100/53 64/17/47 68/20/51
f 69/67/52 75/101/58 73/50/56
f 75/101/58 70/100/53 74/102/57
f 70/100/53 72/21/55 74/102/57
f 73/50/56 79/103/62 77/104/60
f 75/101/58 78/105/61 79/103/62
f 74/102/57 76/22/59 78/105/61
f 77/104/60 83/106/66 81/64/64
f 79/107/62 82/108/65 83/109/66
f 82/108/65 76/24/59 80/23/63
f 81/38/64 87/110/70 85/59/68
f 83/109/66 86/111/69 87/110/70
f 86/111/69 80/23/63 84/26/67
f 89/1/72 87/110/70 91/112/74
f 91/112/74 86/111/69 90/113/73
f 90/113/73 84/26/67 88/30/71
f 20/114/3 91/112/74 22/115/5
f 22/115/5 90/113/73 23/71/6
f 90/113/73 21/31/4 23/71/6
f 24/73/7 21/31/4 19/25/2
f 89/1/72 20/114/3 92/2/75
f 41/27/24 45/55/28 98/28/81
f 18/116/1 1/117/1 2/118/1
f 2/118/1 3/119/1 4/32/1
f 4/32/1 5/120/1 6/121/1
f 6/121/1 7/122/1 4/32/1
f 7/122/1 8/33/1 4/32/1
f 8/33/1 9/123/1 12/34/1
f 9/123/1 10/124/1 12/34/1
f 10/124/1 11/125/1 12/34/1
f 12/34/1 13/126/1 16/127/1
f 13/126/1 14/128/1 16/127/1
f 14/128/1 15/129/1 16/127/1
f 16/127/1 17/130/1 18/116/1
f 18/116/1 2/118/1 4/32/1
f 16/127/1 18/116/1 12/34/1
f 18/116/1 4/32/1 12/34/1
f 61/35/44 65/57/48 103/36/86
f 81/38/64 85/59/68 108/39/91
f 33/41/16 37/78/20 96/42/79
f 53/44/36 57/62/40 101/45/84
f 92/47/75 20/68/3 25/48/8
f 73/50/56 77/104/60 106/51/89
f 93/49/76 25/48/8 29/53/12
f 45/55/28 49/66/32 99/56/82
f 65/57/48 69/67/52 104/58/87
f 85/59/68 89/1/72 109/3/92
f 96/42/79 37/78/20 41/60/24
f 57/62/40 61/92/44 102/63/85
f 106/51/89 77/104/60 81/64/64
f 29/53/12 33/41/16 95/43/78
f 49/66/32 53/44/36 100/46/83
f 69/67/52 73/50/56 105/52/88
f 20/68/3 22/131/5 27/69/10
f 27/70/10 22/115/5 23/71/6
f 26/72/9 23/71/6 21/31/4
f 25/48/8 27/69/10 31/74/14
f 27/69/10 26/132/9 30/75/13
f 30/75/13 26/132/9 24/5/7
f 33/41/16 29/53/12 31/74/14
f 31/74/14 30/75/13 34/77/17
f 30/75/13 28/4/11 32/7/15
f 37/78/20 33/41/16 35/76/18
f 39/79/22 35/76/18 34/77/17
f 38/80/21 34/77/17 32/7/15
f 37/78/20 39/79/22 43/81/26
f 39/79/22 38/80/21 42/82/25
f 38/80/21 36/8/19 40/9/23
f 41/27/24 43/84/26 47/83/30
f 43/84/26 42/133/25 46/85/29
f 46/85/29 42/133/25 40/11/23
f 49/66/32 45/55/28 47/83/30
f 47/83/30 46/85/29 50/87/33
f 46/85/29 44/10/27 48/13/31
f 49/66/32 51/86/34 55/88/38
f 55/88/38 51/86/34 50/87/33
f 50/87/33 48/13/31 52/14/35
f 57/62/40 53/44/36 55/88/38
f 55/88/38 54/89/37 58/91/41
f 54/89/37 52/14/35 56/15/39
f 61/92/44 57/62/40 59/90/42
f 59/90/42 58/91/41 62/94/45
f 58/91/41 56/15/39 60/16/43
f 61/35/44 63/96/46 67/95/50
f 63/96/46 62/98/45 66/97/49
f 62/98/45 60/18/43 64/17/47
f 65/57/48 67/95/50 71/99/54
f 67/95/50 66/97/49 70/100/53
f 70/100/53 66/97/49 64/17/47
f 69/67/52 71/99/54 75/101/58
f 75/101/58 71/99/54 70/100/53
f 70/100/53 68/20/51 72/21/55
f 73/50/56 75/101/58 79/103/62
f 75/101/58 74/102/57 78/105/61
f 74/102/57 72/21/55 76/22/59
f 77/104/60 79/103/62 83/106/66
f 79/107/62 78/134/61 82/108/65
f 82/108/65 78/134/61 76/24/59
f 81/38/64 83/109/66 87/110/70
f 83/109/66 82/108/65 86/111/69
f 86/111/69 82/108/65 80/23/63
f 89/1/72 85/59/68 87/110/70
f 91/112/74 87/110/70 86/111/69
f 90/113/73 86/111/69 84/26/67
f 20/114/3 89/1/72 91/112/74
f 22/115/5 91/112/74 90/113/73
f 90/113/73 88/30/71 21/31/4
